<svg xmlns="http://www.w3.org/2000/svg" xmlns:xlink="http://www.w3.org/1999/xlink" viewBox="0 0 11264 2048"><defs><style>.cls-1{fill:url(#linear-gradient);}.cls-2{fill:#1c1c1e;}</style><linearGradient id="linear-gradient" y1="1024" x2="2048" y2="1024" gradientUnits="userSpaceOnUse"><stop offset="0" stop-color="#fff"/><stop offset="0" stop-color="#fcfcfc"/><stop offset="0" stop-color="#c1c1c2"/><stop offset="0" stop-color="#8f8f90"/><stop offset="0" stop-color="#656567"/><stop offset="0" stop-color="#454547"/><stop offset="0" stop-color="#2f2f30"/><stop offset="0" stop-color="#212123"/><stop offset="0" stop-color="#1c1c1e"/></linearGradient></defs><g id="Layer_2" data-name="Layer 2"><g id="Layer_1-2" data-name="Layer 1"><polygon class="cls-1" points="0 2048 682.67 2048 682.67 1526.49 1526.49 2048 2048 2048 2048 0 1526.49 0 1526.49 682.67 682.67 0 0 0 0 2048"/><path class="cls-2" d="M3323.58,0c-565.54,0-1024,458.46-1024,1024s458.46,1024,1024,1024,1024-458.46,1024-1024S3889.12,0,3323.58,0Zm48.67,1525.55c-218.08-16.39-389.92-198.53-389.92-420.8,0-231.48,190.52-422,422-422,222.27,0,404.4,171.84,420.8,389.92C3845.22,1339.93,3639.51,1545.64,3372.25,1525.55Z"/><path class="cls-2" d="M5632,0C5066.46,0,4608,458.46,4608,1024s458.46,1024,1024,1024,1024-458.46,1024-1024S6197.54,0,5632,0Zm48.67,1525.55c-218.08-16.39-389.92-198.53-389.92-420.8,0-231.48,190.52-422,422-422,222.27,0,404.41,171.84,420.8,389.92C6153.64,1339.93,5947.93,1545.64,5680.67,1525.55Z"/><polygon class="cls-2" points="6916.42 0 7599.09 0 8021 682.67 8442.91 0 8964.42 0 8442.91 1104.58 8964.42 2048 8442.91 2048 8021 1526.49 7599.09 2048 6916.42 2048 7599.09 1104.58 6916.42 0"/><polygon class="cls-2" points="9216 0 9898.67 1104.58 9898.67 2048 10742.49 2048 10742.49 1104.58 11264 0 10742.49 0 10320.58 682.67 9898.67 0 9216 0"/></g></g></svg>