<svg xmlns="http://www.w3.org/2000/svg" xmlns:xlink="http://www.w3.org/1999/xlink" viewBox="0 0 10923 2048"><defs><style>.cls-1{fill:url(#linear-gradient);}.cls-2{fill:#1c1c1e;}</style><linearGradient id="linear-gradient" y1="1024" x2="2048" y2="1024" gradientUnits="userSpaceOnUse"><stop offset="0" stop-color="#fff"/><stop offset="0" stop-color="#fcfcfc"/><stop offset="0" stop-color="#c1c1c2"/><stop offset="0" stop-color="#8f8f90"/><stop offset="0" stop-color="#656567"/><stop offset="0" stop-color="#454547"/><stop offset="0" stop-color="#2f2f30"/><stop offset="0" stop-color="#212123"/><stop offset="0" stop-color="#1c1c1e"/></linearGradient></defs><g id="Layer_2" data-name="Layer 2"><g id="Layer_1-2" data-name="Layer 1"><polygon class="cls-1" points="0 2048 682.67 2048 682.67 1526.49 1526.49 2048 2048 2048 2048 0 1526.49 0 1526.49 682.67 682.67 0 0 0 0 2048"/><path class="cls-2" d="M3328.13,0c-565.54,0-1024,458.46-1024,1024s458.46,1024,1024,1024,1024-458.46,1024-1024S3893.66,0,3328.13,0Zm48.66,1525.55c-218.07-16.39-389.91-198.53-389.91-420.8,0-231.48,190.51-422,422-422,222.27,0,404.4,171.84,420.79,389.92C3849.76,1339.93,3644.05,1545.64,3376.79,1525.55Z"/><path class="cls-2" d="M5546.88,0c-565.54,0-1024,458.46-1024,1024s458.46,1024,1024,1024,1024-458.46,1024-1024S6112.41,0,5546.88,0Zm48.66,1525.55c-218.07-16.39-389.91-198.53-389.91-420.8,0-231.48,190.51-422,422-422,222.27,0,404.4,171.84,420.79,389.92C6068.51,1339.93,5862.8,1545.64,5595.54,1525.55Z"/><polygon class="cls-2" points="6656.25 0 7338.92 0 7760.83 682.67 8182.74 0 8704.25 0 8182.74 1104.58 8704.25 2048 8182.74 2048 7760.83 1526.49 7338.92 2048 6656.25 2048 7338.92 1104.58 6656.25 0"/><polygon class="cls-2" points="8875 0 9557.67 1104.58 9557.67 2048 10401.49 2048 10401.49 1104.58 10923 0 10401.49 0 9979.58 682.67 9557.67 0 8875 0"/></g></g></svg>